<svg xmlns="http://www.w3.org/2000/svg" xmlns:xlink="http://www.w3.org/1999/xlink" width="500" zoomAndPan="magnify" viewBox="0 0 375 374.999991" height="500" preserveAspectRatio="xMidYMid meet" version="1.0"><defs><clipPath id="9a6455d1e0"><path d="M 126 74 L 337.023438 74 L 337.023438 338 L 126 338 Z M 126 74 " clip-rule="nonzero"/></clipPath><clipPath id="fabb4593e4"><path d="M 37.773438 37 L 249 37 L 249 301 L 37.773438 301 Z M 37.773438 37 " clip-rule="nonzero"/></clipPath></defs><g clip-path="url(#9a6455d1e0)"><path fill="#4b4998" d="M 337.613281 268.835938 L 337.613281 91.394531 C 337.613281 77.730469 322.375 69.578125 310.996094 77.15625 L 248.484375 118.800781 L 290.738281 146.949219 L 290.738281 266.550781 C 290.738281 284.765625 270.417969 295.636719 255.246094 285.53125 L 168.988281 228.066406 L 126.730469 256.21875 L 231.140625 325.777344 C 276.652344 356.089844 337.613281 323.492188 337.613281 268.835938 Z M 337.613281 268.835938 " fill-opacity="1" fill-rule="nonzero"/></g><g clip-path="url(#fabb4593e4)"><path fill="#fdc309" d="M 84.480469 228.0625 L 84.480469 108.46875 C 84.480469 90.25 104.804688 79.382812 119.972656 89.484375 L 206.234375 146.949219 L 248.488281 118.800781 L 144.074219 49.246094 C 98.5625 18.925781 37.601562 51.523438 37.601562 106.183594 L 37.601562 283.625 C 37.601562 297.289062 52.839844 305.441406 64.21875 297.859375 L 126.730469 256.210938 Z M 84.480469 228.0625 " fill-opacity="1" fill-rule="nonzero"/></g><path fill="#e61a5a" d="M 168.988281 228.0625 L 290.734375 146.957031 L 290.738281 146.957031 L 248.484375 118.800781 L 206.226562 146.949219 L 206.226562 146.957031 L 84.480469 228.0625 L 84.476562 228.0625 L 126.730469 256.21875 L 168.988281 228.066406 Z M 168.988281 228.0625 " fill-opacity="1" fill-rule="nonzero"/></svg>