<svg xmlns="http://www.w3.org/2000/svg" xmlns:xlink="http://www.w3.org/1999/xlink" width="200" zoomAndPan="magnify" viewBox="0 0 150 74.999997" height="100" preserveAspectRatio="xMidYMid meet" version="1.0"><defs><clipPath id="59b43173c2"><path d="M 22.085938 26.113281 L 44.511719 26.113281 L 44.511719 53.789062 L 22.085938 53.789062 Z M 22.085938 26.113281 " clip-rule="nonzero"/></clipPath><clipPath id="fda46e0dc4"><path d="M 13.117188 22.371094 L 35.550781 22.371094 L 35.550781 50 L 13.117188 50 Z M 13.117188 22.371094 " clip-rule="nonzero"/></clipPath></defs><g clip-path="url(#59b43173c2)"><path fill="#4b4998" d="M 44.515625 46.601562 L 44.515625 28.019531 C 44.515625 26.585938 42.917969 25.734375 41.726562 26.527344 L 35.179688 30.890625 L 39.605469 33.835938 L 39.605469 46.359375 C 39.605469 48.269531 37.476562 49.40625 35.890625 48.347656 L 26.855469 42.332031 L 22.429688 45.28125 L 33.363281 52.5625 C 38.132812 55.738281 44.515625 52.324219 44.515625 46.601562 Z M 44.515625 46.601562 " fill-opacity="1" fill-rule="nonzero"/></g><g clip-path="url(#fda46e0dc4)"><path fill="#fdc309" d="M 18.007812 42.328125 L 18.007812 29.808594 C 18.007812 27.898438 20.132812 26.761719 21.722656 27.820312 L 30.757812 33.835938 L 35.183594 30.890625 L 24.246094 23.605469 C 19.480469 20.429688 13.097656 23.84375 13.097656 29.566406 L 13.097656 48.148438 C 13.097656 49.582031 14.695312 50.433594 15.882812 49.640625 L 22.429688 45.277344 Z M 18.007812 42.328125 " fill-opacity="1" fill-rule="nonzero"/></g><path fill="#e61a5a" d="M 26.855469 42.328125 L 39.605469 33.835938 L 35.179688 30.890625 L 30.753906 33.835938 L 18.007812 42.328125 L 18.003906 42.328125 L 22.429688 45.28125 L 26.855469 42.332031 Z M 26.855469 42.328125 " fill-opacity="1" fill-rule="nonzero"/><path fill="#fdc309" d="M 53.9375 28.789062 L 53.9375 34.355469 L 49.800781 28.789062 L 47.894531 28.789062 L 47.894531 37.203125 L 49.746094 37.203125 L 49.746094 31.621094 L 53.867188 37.203125 L 55.777344 37.203125 L 55.777344 28.789062 Z M 53.9375 28.789062 " fill-opacity="1" fill-rule="nonzero"/><path fill="#fdc309" d="M 62.929688 34.382812 C 62.929688 32.628906 61.722656 31.46875 59.914062 31.46875 C 58.105469 31.46875 56.828125 32.644531 56.828125 34.398438 C 56.828125 36.152344 58.089844 37.316406 59.96875 37.316406 C 61.527344 37.316406 62.5625 36.488281 62.84375 35.265625 L 61.121094 35.265625 C 60.964844 35.714844 60.558594 35.984375 59.941406 35.984375 C 59.128906 35.984375 58.707031 35.492188 58.636719 34.691406 L 62.929688 34.691406 Z M 59.941406 32.839844 C 60.546875 32.839844 60.894531 33.121094 61.078125 33.613281 L 58.75 33.613281 C 58.933594 33.136719 59.308594 32.839844 59.941406 32.839844 Z M 59.941406 32.839844 " fill-opacity="1" fill-rule="nonzero"/><path fill="#fdc309" d="M 69.941406 31.59375 L 67.796875 31.59375 L 66.492188 33.136719 L 65.1875 31.59375 L 63.054688 31.59375 L 65.425781 34.398438 L 63.054688 37.203125 L 65.214844 37.203125 L 66.503906 35.675781 L 67.796875 37.203125 L 69.941406 37.203125 L 67.570312 34.414062 Z M 69.941406 31.59375 " fill-opacity="1" fill-rule="nonzero"/><path fill="#fdc309" d="M 72.984375 37.316406 C 74.679688 37.316406 75.621094 36.429688 75.621094 35.058594 L 75.621094 31.59375 L 73.839844 31.59375 L 73.839844 34.820312 C 73.839844 35.351562 73.476562 35.730469 72.984375 35.730469 C 72.507812 35.730469 72.144531 35.351562 72.144531 34.820312 L 72.144531 31.59375 L 70.347656 31.59375 L 70.347656 35.058594 C 70.347656 36.429688 71.289062 37.316406 72.984375 37.316406 Z M 72.984375 37.316406 " fill-opacity="1" fill-rule="nonzero"/><path fill="#fdc309" d="M 78.75 37.316406 C 80.011719 37.316406 80.78125 36.542969 80.78125 35.492188 C 80.78125 34.371094 79.855469 33.921875 79.058594 33.613281 C 78.652344 33.445312 78.453125 33.359375 78.453125 33.148438 C 78.453125 32.96875 78.59375 32.828125 78.902344 32.828125 C 79.269531 32.828125 79.605469 33.023438 79.773438 33.234375 L 80.671875 32.222656 C 80.25 31.804688 79.5625 31.480469 78.777344 31.480469 C 77.5 31.480469 76.6875 32.320312 76.6875 33.277344 C 76.6875 34.398438 77.808594 34.777344 78.453125 35.015625 C 78.960938 35.210938 79.128906 35.351562 79.128906 35.546875 C 79.128906 35.773438 78.933594 35.898438 78.636719 35.898438 C 78.34375 35.898438 77.949219 35.785156 77.699219 35.308594 L 76.378906 35.96875 C 76.714844 36.835938 77.753906 37.316406 78.75 37.316406 Z M 78.75 37.316406 " fill-opacity="1" fill-rule="nonzero"/><path fill="#e61a5a" d="M 84.859375 37.203125 L 86.710938 37.203125 L 86.710938 28.789062 L 84.859375 28.789062 Z M 84.859375 37.203125 " fill-opacity="1" fill-rule="nonzero"/><path fill="#e61a5a" d="M 91.589844 31.480469 C 90.945312 31.480469 90.382812 31.789062 89.992188 32.28125 L 89.992188 31.59375 L 88.195312 31.59375 L 88.195312 37.203125 L 89.992188 37.203125 L 89.992188 33.949219 C 89.992188 33.445312 90.414062 33.066406 90.929688 33.066406 C 91.449219 33.066406 91.816406 33.445312 91.816406 33.949219 L 91.816406 37.203125 L 93.59375 37.203125 L 93.59375 33.65625 C 93.59375 32.417969 92.699219 31.480469 91.589844 31.480469 Z M 91.589844 31.480469 " fill-opacity="1" fill-rule="nonzero"/><path fill="#e61a5a" d="M 98.292969 32.980469 L 98.292969 31.59375 L 96.960938 31.59375 L 96.960938 29.433594 L 95.179688 29.433594 L 95.179688 31.59375 L 94.242188 31.59375 L 94.242188 32.980469 L 95.179688 32.980469 L 95.179688 35.195312 C 95.179688 36.390625 96.191406 37.316406 97.382812 37.316406 C 97.761719 37.316406 98.140625 37.230469 98.28125 37.132812 L 98.28125 35.746094 L 97.609375 35.746094 C 97.226562 35.746094 96.960938 35.449219 96.960938 34.988281 L 96.960938 32.980469 Z M 98.292969 32.980469 " fill-opacity="1" fill-rule="nonzero"/><path fill="#e61a5a" d="M 104.886719 34.382812 C 104.886719 32.628906 103.679688 31.46875 101.871094 31.46875 C 100.0625 31.46875 98.785156 32.644531 98.785156 34.398438 C 98.785156 36.152344 100.046875 37.316406 101.925781 37.316406 C 103.484375 37.316406 104.523438 36.488281 104.800781 35.265625 L 103.078125 35.265625 C 102.921875 35.714844 102.515625 35.984375 101.898438 35.984375 C 101.085938 35.984375 100.664062 35.492188 100.59375 34.691406 L 104.886719 34.691406 Z M 101.898438 32.839844 C 102.503906 32.839844 102.855469 33.121094 103.035156 33.613281 L 100.707031 33.613281 C 100.890625 33.136719 101.269531 32.839844 101.898438 32.839844 Z M 101.898438 32.839844 " fill-opacity="1" fill-rule="nonzero"/><path fill="#e61a5a" d="M 111.84375 31.59375 L 110.046875 31.59375 L 110.046875 32.152344 C 109.585938 31.734375 108.980469 31.480469 108.292969 31.480469 C 106.738281 31.480469 105.519531 32.757812 105.519531 34.398438 C 105.519531 36.027344 106.738281 37.316406 108.292969 37.316406 C 108.996094 37.316406 109.613281 37.046875 110.078125 36.613281 L 110.078125 37.359375 C 110.078125 38.394531 109.5 39.027344 108.589844 39.027344 C 107.945312 39.027344 107.453125 38.675781 107.242188 38.113281 L 105.601562 38.773438 C 106.066406 39.921875 107.117188 40.582031 108.589844 40.582031 C 110.636719 40.582031 111.855469 39.335938 111.855469 37.257812 Z M 108.742188 35.730469 C 108 35.730469 107.410156 35.140625 107.410156 34.398438 C 107.410156 33.65625 108 33.066406 108.742188 33.066406 C 109.484375 33.066406 110.089844 33.65625 110.089844 34.398438 C 110.089844 35.140625 109.484375 35.730469 108.742188 35.730469 Z M 108.742188 35.730469 " fill-opacity="1" fill-rule="nonzero"/><path fill="#e61a5a" d="M 116.667969 31.480469 C 116.007812 31.480469 115.460938 31.816406 115.097656 32.363281 L 115.097656 31.59375 L 113.300781 31.59375 L 113.300781 37.203125 L 115.097656 37.203125 L 115.097656 34.523438 C 115.097656 33.597656 115.726562 33.066406 116.613281 33.066406 C 116.820312 33.066406 117.003906 33.09375 117.128906 33.121094 L 117.128906 31.539062 C 117.003906 31.496094 116.835938 31.480469 116.667969 31.480469 Z M 116.667969 31.480469 " fill-opacity="1" fill-rule="nonzero"/><path fill="#e61a5a" d="M 123.960938 35.746094 C 123.722656 35.746094 123.46875 35.660156 123.46875 35.195312 L 123.46875 31.59375 L 121.6875 31.59375 L 121.6875 32.082031 C 121.269531 31.707031 120.734375 31.480469 120.089844 31.480469 C 118.53125 31.480469 117.3125 32.769531 117.3125 34.398438 C 117.3125 36.027344 118.53125 37.316406 120.089844 37.316406 C 120.902344 37.316406 121.5625 36.949219 122.011719 36.363281 C 122.363281 36.9375 122.980469 37.316406 123.734375 37.316406 C 123.917969 37.316406 124.085938 37.257812 124.214844 37.203125 L 124.214844 35.746094 Z M 120.441406 35.730469 C 119.699219 35.730469 119.105469 35.140625 119.105469 34.398438 C 119.105469 33.65625 119.699219 33.066406 120.441406 33.066406 C 121.171875 33.066406 121.773438 33.65625 121.773438 34.398438 C 121.773438 35.140625 121.171875 35.730469 120.441406 35.730469 Z M 120.441406 35.730469 " fill-opacity="1" fill-rule="nonzero"/><path fill="#e61a5a" d="M 128.40625 32.980469 L 128.40625 31.59375 L 127.074219 31.59375 L 127.074219 29.433594 L 125.292969 29.433594 L 125.292969 31.59375 L 124.355469 31.59375 L 124.355469 32.980469 L 125.292969 32.980469 L 125.292969 35.195312 C 125.292969 36.390625 126.304688 37.316406 127.496094 37.316406 C 127.875 37.316406 128.25 37.230469 128.390625 37.132812 L 128.390625 35.746094 L 127.71875 35.746094 C 127.339844 35.746094 127.074219 35.449219 127.074219 34.988281 L 127.074219 32.980469 Z M 128.40625 32.980469 " fill-opacity="1" fill-rule="nonzero"/><path fill="#e61a5a" d="M 135 34.382812 C 135 32.628906 133.792969 31.46875 131.984375 31.46875 C 130.171875 31.46875 128.898438 32.644531 128.898438 34.398438 C 128.898438 36.152344 130.160156 37.316406 132.039062 37.316406 C 133.597656 37.316406 134.632812 36.488281 134.914062 35.265625 L 133.1875 35.265625 C 133.035156 35.714844 132.628906 35.984375 132.011719 35.984375 C 131.199219 35.984375 130.777344 35.492188 130.707031 34.691406 L 135 34.691406 Z M 132.011719 32.839844 C 132.613281 32.839844 132.964844 33.121094 133.148438 33.613281 L 130.820312 33.613281 C 131 33.136719 131.378906 32.839844 132.011719 32.839844 Z M 132.011719 32.839844 " fill-opacity="1" fill-rule="nonzero"/><path fill="#e61a5a" d="M 140.003906 27.597656 L 140.003906 32.082031 C 139.585938 31.707031 139.050781 31.480469 138.40625 31.480469 C 136.851562 31.480469 135.628906 32.769531 135.628906 34.398438 C 135.628906 36.027344 136.851562 37.316406 138.40625 37.316406 C 139.050781 37.316406 139.585938 37.089844 140.003906 36.710938 L 140.003906 37.21875 L 141.785156 37.203125 L 141.785156 27.597656 Z M 138.757812 35.730469 C 138.015625 35.730469 137.425781 35.140625 137.425781 34.398438 C 137.425781 33.65625 138.015625 33.066406 138.757812 33.066406 C 139.488281 33.066406 140.089844 33.65625 140.089844 34.398438 C 140.089844 35.140625 139.488281 35.730469 138.757812 35.730469 Z M 138.757812 35.730469 " fill-opacity="1" fill-rule="nonzero"/><path fill="#4b4998" d="M 50.488281 47.972656 C 52.058594 47.972656 53.390625 47.046875 53.390625 45.476562 C 53.390625 42.363281 49.519531 43.136719 49.519531 41.675781 C 49.519531 41.199219 49.886719 40.976562 50.335938 40.976562 C 50.8125 40.976562 51.289062 41.242188 51.710938 41.707031 L 52.941406 40.527344 C 52.324219 39.8125 51.386719 39.335938 50.347656 39.335938 C 49.015625 39.335938 47.65625 40.132812 47.65625 41.816406 C 47.65625 44.679688 51.539062 43.992188 51.539062 45.464844 C 51.539062 45.925781 51.148438 46.234375 50.503906 46.234375 C 49.730469 46.234375 49.128906 45.800781 48.820312 45.140625 L 47.292969 46.09375 C 47.839844 47.144531 49.015625 47.972656 50.488281 47.972656 Z M 50.488281 47.972656 " fill-opacity="1" fill-rule="nonzero"/><path fill="#4b4998" d="M 57.050781 47.972656 C 58.933594 47.972656 60.167969 46.738281 60.167969 45.058594 C 60.167969 43.375 58.933594 42.140625 57.050781 42.140625 C 55.171875 42.140625 53.925781 43.375 53.925781 45.058594 C 53.925781 46.738281 55.171875 47.972656 57.050781 47.972656 Z M 57.050781 46.390625 C 56.28125 46.375 55.71875 45.8125 55.71875 45.058594 C 55.71875 44.300781 56.28125 43.738281 57.050781 43.722656 C 57.808594 43.738281 58.382812 44.300781 58.382812 45.058594 C 58.382812 45.8125 57.808594 46.375 57.050781 46.390625 Z M 57.050781 46.390625 " fill-opacity="1" fill-rule="nonzero"/><path fill="#4b4998" d="M 61.21875 47.863281 L 63.011719 47.863281 L 63.011719 38.253906 L 61.21875 38.253906 Z M 61.21875 47.863281 " fill-opacity="1" fill-rule="nonzero"/><path fill="#4b4998" d="M 66.953125 47.972656 C 68.652344 47.972656 69.589844 47.089844 69.589844 45.714844 L 69.589844 42.253906 L 67.808594 42.253906 L 67.808594 45.476562 C 67.808594 46.011719 67.445312 46.390625 66.953125 46.390625 C 66.476562 46.390625 66.113281 46.011719 66.113281 45.476562 L 66.113281 42.253906 L 64.316406 42.253906 L 64.316406 45.714844 C 64.316406 47.089844 65.257812 47.972656 66.953125 47.972656 Z M 66.953125 47.972656 " fill-opacity="1" fill-rule="nonzero"/><path fill="#4b4998" d="M 74.289062 43.640625 L 74.289062 42.253906 L 72.957031 42.253906 L 72.957031 40.09375 L 71.175781 40.09375 L 71.175781 42.253906 L 70.234375 42.253906 L 70.234375 43.640625 L 71.175781 43.640625 L 71.175781 45.855469 C 71.175781 47.046875 72.183594 47.972656 73.378906 47.972656 C 73.753906 47.972656 74.132812 47.890625 74.273438 47.792969 L 74.273438 46.402344 L 73.601562 46.402344 C 73.222656 46.402344 72.957031 46.109375 72.957031 45.644531 L 72.957031 43.640625 Z M 74.289062 43.640625 " fill-opacity="1" fill-rule="nonzero"/><path fill="#4b4998" d="M 76.097656 41.3125 C 76.632812 41.3125 77.078125 40.863281 77.078125 40.332031 C 77.078125 39.78125 76.632812 39.347656 76.097656 39.347656 C 75.566406 39.347656 75.117188 39.78125 75.117188 40.332031 C 75.117188 40.863281 75.566406 41.3125 76.097656 41.3125 Z M 75.199219 47.863281 L 76.980469 47.863281 L 76.980469 42.253906 L 75.199219 42.253906 Z M 75.199219 47.863281 " fill-opacity="1" fill-rule="nonzero"/><path fill="#4b4998" d="M 81.1875 47.972656 C 83.070312 47.972656 84.304688 46.738281 84.304688 45.058594 C 84.304688 43.375 83.070312 42.140625 81.1875 42.140625 C 79.308594 42.140625 78.0625 43.375 78.0625 45.058594 C 78.0625 46.738281 79.308594 47.972656 81.1875 47.972656 Z M 81.1875 46.390625 C 80.417969 46.375 79.855469 45.8125 79.855469 45.058594 C 79.855469 44.300781 80.417969 43.738281 81.1875 43.722656 C 81.945312 43.738281 82.519531 44.300781 82.519531 45.058594 C 82.519531 45.8125 81.945312 46.375 81.1875 46.390625 Z M 81.1875 46.390625 " fill-opacity="1" fill-rule="nonzero"/><path fill="#4b4998" d="M 88.75 42.140625 C 88.105469 42.140625 87.542969 42.449219 87.148438 42.9375 L 87.148438 42.253906 L 85.355469 42.253906 L 85.355469 47.863281 L 87.148438 47.863281 L 87.148438 44.609375 C 87.148438 44.101562 87.570312 43.722656 88.089844 43.722656 C 88.609375 43.722656 88.972656 44.101562 88.972656 44.609375 L 88.972656 47.863281 L 90.753906 47.863281 L 90.753906 44.3125 C 90.753906 43.078125 89.855469 42.140625 88.75 42.140625 Z M 88.75 42.140625 " fill-opacity="1" fill-rule="nonzero"/><path fill="#4b4998" d="M 93.882812 47.972656 C 95.144531 47.972656 95.914062 47.203125 95.914062 46.152344 C 95.914062 45.027344 94.988281 44.582031 94.191406 44.269531 C 93.785156 44.101562 93.585938 44.019531 93.585938 43.808594 C 93.585938 43.625 93.726562 43.488281 94.035156 43.488281 C 94.402344 43.488281 94.738281 43.683594 94.90625 43.894531 L 95.804688 42.882812 C 95.382812 42.460938 94.695312 42.140625 93.910156 42.140625 C 92.632812 42.140625 91.820312 42.980469 91.820312 43.933594 C 91.820312 45.058594 92.941406 45.433594 93.585938 45.671875 C 94.09375 45.871094 94.261719 46.011719 94.261719 46.207031 C 94.261719 46.433594 94.066406 46.558594 93.769531 46.558594 C 93.476562 46.558594 93.082031 46.445312 92.832031 45.96875 L 91.511719 46.628906 C 91.847656 47.496094 92.886719 47.972656 93.882812 47.972656 Z M 93.882812 47.972656 " fill-opacity="1" fill-rule="nonzero"/></svg>